<svg xmlns="http://www.w3.org/2000/svg" xmlns:xlink="http://www.w3.org/1999/xlink" width="54" height="54" version="1.1" viewBox="0 0 54 54"><title>github-mark</title><desc>Created with Sketch.</desc><g id="Page-1" fill="none" fill-rule="evenodd" stroke="none" stroke-width="1"><g id="github-mark" fill="#000" fill-rule="nonzero"><g id="Octicons-mark-github"><path id="Shape" d="M27,0 C12.0893555,0 0,12.3918919 0,27.6756757 C0,39.9054054 7.7355,50.277027 18.4652578,53.9357838 C19.8149414,54.1891892 20.3076914,53.3344324 20.3076914,52.6047027 C20.3076914,51.9458919 20.282959,49.7635135 20.2697754,47.4527027 C12.7617187,49.124973 11.1747305,44.1891892 11.1747305,44.1891892 C9.94538672,40.9932432 8.17709766,40.1418919 8.17709766,40.1418919 C5.72331445,38.4256757 8.36325,38.4594595 8.36325,38.4594595 C11.0741133,38.652 12.5013164,41.3108108 12.5013164,41.3108108 C14.9106445,45.5405405 18.8228496,44.3175676 20.3587383,43.6081081 C20.6041641,41.8243243 21.3028945,40.6013514 22.0726055,39.9121622 C16.0790273,39.2128649 9.774,36.8378378 9.774,26.2330811 C9.774,23.2094054 10.8270527,20.7432432 12.5507812,18.8057297 C12.2755605,18.103027 11.3461172,15.2871351 12.8177227,11.4780541 C12.8177227,11.4780541 15.0820312,10.7348108 20.2433555,14.3158919 C22.3955508,13.6993514 24.7043672,13.3952973 26.9999473,13.3851351 C29.2938926,13.3952973 31.604291,13.7027027 33.7598613,14.3192432 C38.911377,10.7348108 41.1789551,11.4814054 41.1789551,11.4814054 C42.6555176,15.2938919 41.7260742,18.1063784 41.4492187,18.8057297 C43.1795391,20.7432432 44.2243652,23.2094595 44.2243652,26.2330811 C44.2243652,36.8648649 37.9094238,39.2060541 31.8944355,39.8918919 C32.866752,40.75 33.7269551,42.4324324 33.7269551,45.0135135 C33.7269551,48.7128649 33.6906738,51.6959459 33.6906738,52.6081081 C33.6906738,53.3445946 34.1817363,54.2060541 35.5495605,53.9357838 C46.2711445,50.2702703 54,39.8986486 54,27.6756757 C54,12.3918919 41.9106445,0 27,0 Z"/></g></g></g></svg>