<svg xmlns="http://www.w3.org/2000/svg" xmlns:xlink="http://www.w3.org/1999/xlink" width="93" height="89" version="1.1" viewBox="0 0 93 89"><title>jasmine-white-vertical copy</title><desc>Created with Sketch.</desc><g id="Page-1" fill="none" fill-rule="evenodd" stroke="none" stroke-width="1"><g id="jasmine-white-vertical-copy" fill="#FFF" fill-rule="nonzero"><g id="logo"><g transform="translate(14.000000, 0.000000) translate(32.500000, 32.500000) scale(1, -1) translate(-32.500000, -32.500000)"><polyline id="path36" points="29.896 37.956 34.912 37.956 36.158 39.671 36.158 53.109 28.651 53.109 28.651 39.67 29.896 37.956"/><polyline id="path38" points="26.663 31.962 28.213 36.732 26.966 38.447 14.186 42.6 11.866 35.46 24.648 31.307 26.663 31.962"/><polyline id="path40" points="31.364 27.034 27.307 29.983 25.29 29.327 17.391 18.455 23.465 14.043 31.364 24.915 31.364 27.034"/><polyline id="path42" points="37.503 29.983 33.445 27.035 33.445 24.915 41.344 14.043 47.418 18.455 39.518 29.328 37.503 29.983"/><polyline id="path44" points="36.595 36.733 38.146 31.962 40.162 31.308 52.942 35.46 50.623 42.6 37.842 38.447 36.595 36.733"/><path id="path46" d="M32.4060927,64.7722789 C14.5506037,64.7722789 0.0235459184,50.2478741 0.0235459184,32.3948724 C0.0235459184,14.5354592 14.5506037,0.00668792517 32.4060927,0.00668792517 C50.260034,0.00668792517 64.7849915,14.5354592 64.7849915,32.3948724 C64.7849915,50.2478741 50.260034,64.7722789 32.4060927,64.7722789 Z M32.4060927,58.2164541 C46.6647491,58.2164541 58.2286139,46.657398 58.2286139,32.3948724 C58.2286139,18.1275383 46.6647491,6.56356293 32.4060927,6.56356293 C18.1417985,6.56356293 6.57997874,18.1275383 6.57997874,32.3948724 C6.57997874,46.657398 18.1417985,58.2164541 32.4060927,58.2164541 Z"/><polyline id="path48" points="52.018 25.198 42.303 28.355 42.946 30.334 52.661 27.177 52.018 25.198"/><polyline id="path50" points="39.628 40.795 37.944 42.018 43.948 50.283 45.632 49.06 39.628 40.795"/><polyline id="path52" points="25.285 40.871 19.282 49.135 20.966 50.358 26.969 42.093 25.285 40.871"/><polyline id="path54" points="12.751 25.322 12.108 27.301 21.823 30.456 22.465 28.477 12.751 25.322"/><polygon id="path56" points="31.3 11.75 33.38 11.75 33.38 21.965 31.3 21.965 31.3 11.75"/></g></g><g id="text"><g transform="translate(0.000000, 71.000000) translate(46.647152, 9.177215) scale(1, -1) translate(-46.647152, -9.177215) translate(0.147152, 0.677215)"><path id="path22" d="M3.38449367,4.98928323 C3.40705696,3.99963766 4.0143038,2.98796835 5.13878956,2.98796835 C5.81348101,2.98796835 6.30815665,3.30267722 6.645625,3.86484652 C6.96028481,4.42721203 6.96028481,5.25915981 6.96028481,5.88884731 L6.96028481,13.9621891 L5.20623418,13.9621891 L5.20623418,16.5261392 L11.7503244,16.5261392 L11.7503244,13.9621891 L10.018837,13.9621891 L10.018837,5.50659573 C10.018837,4.06718038 9.92858386,2.94293987 8.91691456,1.77340111 C8.01732595,0.738923259 6.55561709,0.154239715 5.16110759,0.154239715 C2.2825712,0.154239715 0.0784810127,2.06576741 0.191297468,4.98928323 L3.38449367,4.98928323"/><path id="path24" d="M21.9599684,6.54077927 C21.9599684,8.52004589 20.3182437,10.1168892 18.3392959,10.1168892 C16.2929035,10.1168892 14.7186234,8.43001345 14.7186234,6.40618434 C14.7186234,4.44943196 16.3603481,2.83036867 18.2944146,2.83036867 C20.363125,2.83036867 21.9599684,4.49446044 21.9599684,6.54077927 Z M21.915087,2.08828165 C21.0378165,0.761535601 19.6212342,0.154239715 18.0469541,0.154239715 C14.6060522,0.154239715 11.8852136,3.01018829 11.8852136,6.40618434 C11.8852136,9.89194304 14.6737421,12.792822 18.1818434,12.792822 C19.7335601,12.792822 21.082943,12.0733473 21.915087,10.7689193 L21.915087,12.478015 L26.2104509,12.478015 L26.2104509,9.91445728 L24.7036155,9.91445728 L24.7036155,3.03270253 L26.2104509,3.03270253 L26.2104509,0.469144778 L21.915087,0.469144778 L21.915087,2.08828165 Z"/><path id="path26" d="M29.8308782,3.95490348 C29.9208861,2.87539715 30.6404589,2.15602057 31.7649446,2.15602057 C32.5970886,2.15602057 33.4064241,2.74031171 33.4064241,3.63990032 C33.4064241,4.83197785 32.2821835,5.03431171 31.3600316,5.28164953 C29.2685127,5.82130459 26.9746598,6.47372706 26.9746598,9.10463133 C26.9746598,11.3986313 28.9087263,12.7253774 31.0453718,12.7253774 C32.1244858,12.7253774 33.091519,12.5003331 33.7662104,11.6460672 L33.7662104,12.478015 L35.7902848,12.478015 L35.7902848,9.21700633 L33.1364003,9.21700633 C33.091519,10.0718608 32.4393908,10.633932 31.5849288,10.633932 C30.8427927,10.633932 30.0557753,10.2066519 30.0557753,9.37460601 C30.0557753,8.25019383 31.1576978,8.00290506 32.0347231,7.8005712 C34.1934415,7.30577294 36.5098576,6.63083623 36.5098576,3.93209494 C36.5098576,1.50342642 34.4634652,0.154239715 32.2147389,0.154239715 C31,0.154239715 29.8980775,0.536393196 29.1110601,1.45849604 L29.1110601,0.469144778 L27.0197864,0.469144778 L27.0197864,3.95490348 L29.8308782,3.95490348"/><path id="path28" d="M38.8034652,9.91445728 L37.2519937,9.91445728 L37.2519937,12.478015 L41.2998972,12.478015 L41.2998972,10.6789604 C42.0645965,11.9382619 43.2339636,12.7704059 44.7631171,12.7704059 C46.4271598,12.7704059 47.8216693,11.7585403 48.4961155,10.2516804 C49.1484889,11.7808584 50.7676503,12.7704059 52.431693,12.7704059 C53.7361946,12.7704059 55.0181329,12.2308489 55.894913,11.2412278 C56.8396282,10.1391092 56.8396282,8.94732595 56.8396282,7.57574763 L56.8396282,3.03270253 L58.3913449,3.03270253 L58.3913449,0.469144778 L52.544019,0.469144778 L52.544019,3.03270253 L54.095981,3.03270253 L54.095981,6.90071282 C54.095981,7.68802453 54.095981,8.38515665 53.7361946,9.08241139 C53.2864003,9.73434335 52.544019,10.0718608 51.7798101,10.0718608 C51.0376741,10.0718608 50.2278481,9.75685759 49.7557358,9.17246835 C49.1933703,8.45252769 49.1933703,7.77788528 49.1933703,6.90071282 L49.1933703,3.03270253 L50.745087,3.03270253 L50.745087,0.469144778 L44.8980063,0.469144778 L44.8980063,3.03270253 L46.4499684,3.03270253 L46.4499684,6.7208932 C46.4499684,7.44066218 46.4499684,8.34012816 46.090182,8.96984019 C45.7078323,9.68931487 44.9205696,10.0718608 44.1109889,10.0718608 C43.3462896,10.0718608 42.6941614,9.80188608 42.1994858,9.19449209 C41.5919937,8.45252769 41.5471123,7.66551028 41.5471123,6.74340744 L41.5471123,3.03270253 L43.0988291,3.03270253 L43.0988291,0.469144778 L37.2519937,0.469144778 L37.2519937,3.03270253 L38.8034652,3.03270253 L38.8034652,9.91445728"/><path id="path30" d="M63.585807,13.624966 L60.8421598,13.624966 L60.8421598,16.5261392 L63.585807,16.5261392 L63.585807,13.624966 Z M63.585807,3.03270253 L65.1375237,3.03270253 L65.1375237,0.469144778 L59.2678797,0.469144778 L59.2678797,3.03270253 L60.8421598,3.03270253 L60.8421598,9.91445728 L59.290443,9.91445728 L59.290443,12.478015 L63.585807,12.478015 L63.585807,3.03270253 Z"/><path id="path32" d="M67.5211392,9.91445728 L65.9694225,9.91445728 L65.9694225,12.478015 L70.2647864,12.478015 L70.2647864,10.7689193 C70.9846044,12.0957634 72.3337421,12.7480878 73.817769,12.7480878 C75.1222706,12.7480878 76.4039636,12.2081384 77.2812342,11.263644 C78.2705854,10.1616234 78.2931487,9.10463133 78.2931487,7.73305301 L78.2931487,3.03270253 L79.8448655,3.03270253 L79.8448655,0.469144778 L73.9980301,0.469144778 L73.9980301,3.03270253 L75.5495016,3.03270253 L75.5495016,6.92332516 C75.5495016,7.66551028 75.5495016,8.43001345 75.077144,9.08241139 C74.5824684,9.73434335 73.7728877,10.0490522 72.963307,10.0490522 C72.131163,10.0490522 71.2767009,9.71182911 70.7820253,9.03738291 C70.2647864,8.36293671 70.2647864,7.32828718 70.2647864,6.51846123 L70.2647864,3.03270253 L71.8162579,3.03270253 L71.8162579,0.469144778 L65.9694225,0.469144778 L65.9694225,3.03270253 L67.5211392,3.03270253 L67.5211392,9.91445728"/><path id="path34" d="M90.1668354,7.55293908 C89.6949684,9.28454905 88.1655696,10.3867658 86.3889557,10.3867658 C84.7693038,10.3867658 83.2178323,9.12743987 82.8806092,7.55293908 L90.1668354,7.55293908 Z M92.2581092,3.99963766 C91.3136392,1.70595649 89.0877215,0.154239715 86.5915348,0.154239715 C83.0826978,0.154239715 80.2718513,2.89791139 80.2718513,6.42869858 C80.2718513,9.982 82.9480538,12.8378505 86.5235997,12.8378505 C88.1881329,12.8378505 89.8521756,12.0957634 91.0212975,10.9037104 C92.2137184,9.64448259 92.708394,8.11530459 92.708394,6.40618434 L92.6183861,5.43905301 L82.9031725,5.43905301 C83.2629589,3.77469146 84.7923576,2.56068829 86.5015269,2.56068829 C87.693212,2.56068829 88.7274446,3.01018829 89.4023813,3.99963766 L92.2581092,3.99963766 Z"/></g></g></g></g></svg>