<svg xmlns="http://www.w3.org/2000/svg" xmlns:xlink="http://www.w3.org/1999/xlink" width="273" height="75" version="1.1" viewBox="0 0 273 75"><title>jasmine-white-horizontal copy</title><desc>Created with Sketch.</desc><g id="Page-1" fill="none" fill-rule="evenodd" stroke="none" stroke-width="1"><g id="jasmine-white-horizontal-copy" fill="#FFF" fill-rule="nonzero"><g id="logo"><g transform="translate(8.000000, 9.000000) translate(28.500000, 28.500000) scale(1, -1) translate(-28.500000, -28.500000)"><polyline id="path36" points="26.217 33.284 30.615 33.284 31.708 34.788 31.708 46.572 25.125 46.572 25.125 34.787 26.217 33.284"/><polyline id="path38" points="23.381 28.028 24.74 32.211 23.647 33.715 12.44 37.357 10.406 31.095 21.614 27.454 23.381 28.028"/><polyline id="path40" points="27.504 23.707 23.946 26.293 22.177 25.717 15.251 16.184 20.577 12.315 27.504 21.849 27.504 23.707"/><polyline id="path42" points="32.887 26.293 29.329 23.708 29.329 21.848 36.255 12.315 41.582 16.184 34.654 25.718 32.887 26.293"/><polyline id="path44" points="32.091 32.212 33.451 28.028 35.219 27.455 46.426 31.095 44.392 37.357 33.184 33.715 32.091 32.212"/><path id="path46" d="M28.4176505,56.8003061 C12.7597602,56.8003061 0.0206479592,44.0635204 0.0206479592,28.4078112 C0.0206479592,12.7464796 12.7597602,0.00586479592 28.4176505,0.00586479592 C44.0741837,0.00586479592 56.8114541,12.7464796 56.8114541,28.4078112 C56.8114541,44.0635204 44.0741837,56.8003061 28.4176505,56.8003061 Z M28.4176505,51.051352 C40.9213954,51.051352 51.0620153,40.914949 51.0620153,28.4078112 C51.0620153,15.8964566 40.9213954,5.7557398 28.4176505,5.7557398 C15.9089617,5.7557398 5.7701352,15.8964566 5.7701352,28.4078112 C5.7701352,40.914949 15.9089617,51.051352 28.4176505,51.051352 Z"/><polyline id="path48" points="45.616 22.096 37.096 24.865 37.66 26.601 46.179 23.832 45.616 22.096"/><polyline id="path50" points="34.75 35.774 33.274 36.846 38.539 44.094 40.016 43.022 34.75 35.774"/><polyline id="path52" points="22.173 35.84 16.909 43.088 18.385 44.16 23.65 36.913 22.173 35.84"/><polyline id="path54" points="11.181 22.205 10.618 23.94 19.137 26.708 19.7 24.972 11.181 22.205"/><polygon id="path56" points="27.448 10.304 29.272 10.304 29.272 19.262 27.448 19.262 27.448 10.304"/></g></g><g id="text"><g transform="translate(70.000000, 19.784810) translate(94.799051, 17.892405) scale(1, -1) translate(-94.799051, -17.892405) translate(0.299051, 0.892405)"><path id="path22" d="M6.87816456,10.1395111 C6.92401899,8.12829589 8.15810127,6.07232278 10.4433465,6.07232278 C11.8144937,6.07232278 12.8198022,6.71189241 13.505625,7.85436551 C14.1450949,8.99723734 14.1450949,10.6879699 14.1450949,11.9676574 L14.1450949,28.3747714 L10.5804114,28.3747714 L10.5804114,33.5853797 L23.8796915,33.5853797 L23.8796915,28.3747714 L20.3608623,28.3747714 L20.3608623,11.1908236 C20.3608623,8.26556013 20.1774446,5.98081329 18.1214715,3.6040087 C16.2932753,1.50168275 13.3227057,0.313454905 10.4887025,0.313454905 C4.63877373,0.313454905 0.159493671,4.19817247 0.388765823,10.1395111 L6.87816456,10.1395111"/><path id="path24" d="M44.6283228,13.2925514 C44.6283228,17.314932 41.2919146,20.5601297 37.270182,20.5601297 C33.1113845,20.5601297 29.9120411,17.1319628 29.9120411,13.0190198 C29.9120411,9.04239399 33.2484494,5.75203956 37.1789715,5.75203956 C41.383125,5.75203956 44.6283228,9.13390348 44.6283228,13.2925514 Z M44.5371123,4.24392722 C42.7542722,1.54763687 39.8754114,0.313454905 36.676068,0.313454905 C29.6832674,0.313454905 24.1538212,6.11747943 24.1538212,13.0190198 C24.1538212,20.102981 29.8208307,25.9983157 36.9501978,25.9983157 C40.1036867,25.9983157 42.845981,24.5361574 44.5371123,21.8852231 L44.5371123,25.3585467 L53.2664003,25.3585467 L53.2664003,20.1487358 L50.2041218,20.1487358 L50.2041218,6.16323418 L53.2664003,6.16323418 L53.2664003,0.953423259 L44.5371123,0.953423259 L44.5371123,4.24392722 Z"/><path id="path26" d="M60.6240427,8.03738449 C60.806962,5.84354905 62.2693196,4.38159019 64.5545649,4.38159019 C66.2456962,4.38159019 67.8904747,5.56902057 67.8904747,7.39721677 C67.8904747,9.81982595 65.6057278,10.2310206 63.7316772,10.7336748 C59.4811709,11.8303932 54.8194699,13.156284 54.8194699,18.5029604 C54.8194699,23.1649604 58.7499921,25.8612508 63.0922073,25.8612508 C65.2852453,25.8612508 67.2505063,25.4039027 68.6216535,23.6678141 L68.6216535,25.3585467 L72.7350949,25.3585467 L72.7350949,18.7313354 L67.3417168,18.7313354 C67.2505063,20.4686203 65.9252136,21.610894 64.1887263,21.610894 C62.6805142,21.610894 61.0810918,20.7425506 61.0810918,19.0516187 C61.0810918,16.7665229 63.3204826,16.2639684 65.1028244,15.8527737 C69.4898972,14.847216 74.1974525,13.4755704 74.1974525,7.99103165 C74.1974525,3.05535047 70.0386551,0.313454905 65.468663,0.313454905 C63,0.313454905 60.7606092,1.0900894 59.1611867,2.96404035 L59.1611867,0.953423259 L54.9111788,0.953423259 L54.9111788,8.03738449 L60.6240427,8.03738449"/><path id="path28" d="M78.8586551,20.1487358 L75.7056646,20.1487358 L75.7056646,25.3585467 L83.9320491,25.3585467 L83.9320491,21.7024035 C85.4861155,24.261629 87.8625712,25.9527603 90.9702057,25.9527603 C94.3519699,25.9527603 97.1859731,23.8963884 98.5566218,20.8340601 C99.882413,23.9417445 103.172967,25.9527603 106.554731,25.9527603 C109.205815,25.9527603 111.811044,24.8562413 113.592888,22.8450759 C115.512793,20.6052864 115.512793,18.1832753 115.512793,15.3958742 L115.512793,6.16323418 L118.666282,6.16323418 L118.666282,0.953423259 L106.783006,0.953423259 L106.783006,6.16323418 L109.936994,6.16323418 L109.936994,14.0240293 C109.936994,15.6240498 109.936994,17.0408022 109.205815,18.4578038 C108.291717,19.7826978 106.783006,20.4686203 105.229937,20.4686203 C103.721725,20.4686203 102.075949,19.8284525 101.116495,18.6408228 C99.9736234,17.1777176 99.9736234,15.8066701 99.9736234,14.0240293 L99.9736234,6.16323418 L103.127112,6.16323418 L103.127112,0.953423259 L91.2443354,0.953423259 L91.2443354,6.16323418 L94.3983228,6.16323418 L94.3983228,13.6585894 C94.3983228,15.1213457 94.3983228,16.9492927 93.667144,18.2290301 C92.8901108,19.6911883 91.2901899,20.4686203 89.644913,20.4686203 C88.0908465,20.4686203 86.7655538,19.919962 85.7602453,18.6855807 C84.5256646,17.1777176 84.4344541,15.5782951 84.4344541,13.7043441 L84.4344541,6.16323418 L87.587943,6.16323418 L87.587943,0.953423259 L75.7056646,0.953423259 L75.7056646,6.16323418 L78.8586551,6.16323418 L78.8586551,20.1487358"/><path id="path30" d="M129.222769,27.689447 L123.64697,27.689447 L123.64697,33.5853797 L129.222769,33.5853797 L129.222769,27.689447 Z M129.222769,6.16323418 L132.376258,6.16323418 L132.376258,0.953423259 L120.447627,0.953423259 L120.447627,6.16323418 L123.64697,6.16323418 L123.64697,20.1487358 L120.493481,20.1487358 L120.493481,25.3585467 L129.222769,25.3585467 L129.222769,6.16323418 Z"/><path id="path32" d="M137.22038,20.1487358 L134.066891,20.1487358 L134.066891,25.3585467 L142.796179,25.3585467 L142.796179,21.8852231 C144.259035,24.5817128 147.000831,25.9074043 150.016756,25.9074043 C152.66784,25.9074043 155.272571,24.8100878 157.055411,22.8906313 C159.066028,20.6510411 159.111883,18.5029604 159.111883,15.7155593 L159.111883,6.16323418 L162.265372,6.16323418 L162.265372,0.953423259 L150.383093,0.953423259 L150.383093,6.16323418 L153.536084,6.16323418 L153.536084,14.0699834 C153.536084,15.5782951 153.536084,17.1319628 152.576131,18.4578038 C151.570823,19.7826978 149.925546,20.4222674 148.280269,20.4222674 C146.589138,20.4222674 144.85265,19.736943 143.847342,18.3662943 C142.796179,16.9956456 142.796179,14.8929707 142.796179,13.2471954 L142.796179,6.16323418 L145.949169,6.16323418 L145.949169,0.953423259 L134.066891,0.953423259 L134.066891,6.16323418 L137.22038,6.16323418 L137.22038,20.1487358"/><path id="path34" d="M183.242278,15.3495214 C182.283323,18.8685997 179.17519,21.1085886 175.564652,21.1085886 C172.273101,21.1085886 169.120111,18.5493133 168.434786,15.3495214 L183.242278,15.3495214 Z M187.492286,8.12829589 C185.57288,3.46694383 181.049241,0.313454905 175.976345,0.313454905 C168.845483,0.313454905 163.133117,5.8893038 163.133117,13.0647745 C163.133117,20.286 168.571851,26.0898252 175.838283,26.0898252 C179.221044,26.0898252 182.602809,24.5817128 184.978766,22.1591535 C187.402073,19.6000775 188.407381,16.4923932 188.407381,13.0190198 L188.224462,11.0535593 L168.480641,11.0535593 C169.21182,7.67114715 172.319953,5.20397943 175.793426,5.20397943 C178.215237,5.20397943 180.317065,6.11747943 181.68871,8.12829589 L187.492286,8.12829589 Z"/></g></g></g></g></svg>