<svg xmlns="http://www.w3.org/2000/svg" xmlns:xlink="http://www.w3.org/1999/xlink" width="100" height="100" version="1.1" viewBox="0 0 100 100"><title>jasmine-white-circle copy</title><desc>Created with Sketch.</desc><g id="Page-1" fill="none" fill-rule="evenodd" stroke="none" stroke-width="1"><g id="jasmine-white-circle-copy" fill="#FFF" fill-rule="nonzero"><g id="logo"><g transform="translate(50.000000, 50.000000) scale(1, -1) translate(-50.000000, -50.000000)"><polyline id="path36" points="45.994 58.393 53.711 58.393 55.628 61.032 55.628 81.706 44.078 81.706 44.078 61.031 45.994 58.393"/><polyline id="path38" points="41.02 49.172 43.404 56.51 41.487 59.15 21.825 65.538 18.255 54.553 37.92 48.164 41.02 49.172"/><polyline id="path40" points="48.252 41.591 42.01 46.128 38.907 45.118 26.756 28.393 36.1 21.605 48.252 38.331 48.252 41.591"/><polyline id="path42" points="57.697 46.128 51.454 41.592 51.455 38.33 63.606 21.605 72.951 28.393 60.797 45.12 57.697 46.128"/><polyline id="path44" points="56.3 56.512 58.685 49.172 61.788 48.166 81.45 54.553 77.881 65.538 58.218 59.149 56.3 56.512"/><path id="path46" d="M49.8555272,99.6496599 C22.3855442,99.6496599 0.0362244898,77.3044218 0.0362244898,49.8382653 C0.0362244898,22.3622449 22.3855442,0.0102891156 49.8555272,0.0102891156 C77.3231293,0.0102891156 99.6692177,22.3622449 99.6692177,49.8382653 C99.6692177,77.3044218 77.3231293,99.6496599 49.8555272,99.6496599 Z M49.8555272,89.5637755 C71.7919218,89.5637755 89.582483,71.7806122 89.582483,49.8382653 C89.582483,27.8885204 71.7919218,10.0977891 49.8555272,10.0977891 C27.9104592,10.0977891 10.1230442,27.8885204 10.1230442,49.8382653 C10.1230442,71.7806122 27.9104592,89.5637755 49.8555272,89.5637755 Z"/><polyline id="path48" points="80.028 38.766 65.082 43.623 66.07 46.668 81.016 41.81 80.028 38.766"/><polyline id="path50" points="60.966 62.761 58.376 64.643 67.612 77.358 70.203 75.477 60.966 62.761"/><polyline id="path52" points="38.9 62.878 29.665 75.593 32.255 77.474 41.491 64.759 38.9 62.878"/><polyline id="path54" points="19.616 38.957 18.628 42.001 33.573 46.855 34.561 43.811 19.616 38.957"/><polygon id="path56" points="48.154 18.077 51.355 18.077 51.355 33.793 48.154 33.793 48.154 18.077"/></g></g></g></g></svg>